<?xml version="1.0" encoding="UTF-8" standalone="no"?>
<svg xmlns:dc="http://purl.org/dc/elements/1.1/" xmlns:cc="http://creativecommons.org/ns#" xmlns:rdf="http://www.w3.org/1999/02/22-rdf-syntax-ns#" xmlns:svg="http://www.w3.org/2000/svg" xmlns="http://www.w3.org/2000/svg" xmlns:xlink="http://www.w3.org/1999/xlink" viewBox="0 0 2024.88 1485.1733" height="1485.1733" width="2024.88" xml:space="preserve" id="svg2" version="1.1">
  <metadata id="metadata8">
    <rdf:RDF>
      <cc:Work rdf:about="">
        <dc:format>image/svg+xml</dc:format>
        <dc:type rdf:resource="http://purl.org/dc/dcmitype/StillImage" />
      </cc:Work>
    </rdf:RDF>
  </metadata>
  <defs id="defs6">
    <clipPath id="clipPath18" clipPathUnits="userSpaceOnUse">
      <path id="path16" d="M 0,0 H 1518.657 V 552.516 H 0 Z" />
    </clipPath>
    <clipPath id="clipPath32" clipPathUnits="userSpaceOnUse">
      <path id="path30" d="M 0,1113.876 H 1518.657 V 0 H 0 Z" />
    </clipPath>
  </defs>
  <g transform="matrix(1.3333333,0,0,-1.3333333,0,1485.1733)" id="g10">
    <g id="g26">
      <g clip-path="url(#clipPath32)" id="g28">
        <g transform="translate(1042.1329,869.3461)" id="g34">
          <path id="path36" style="fill:#8e2dae;fill-opacity:1;fill-rule:nonzero;stroke:none" d="m 0,0 c 0,0 -597.303,-6.267 -755.813,-140.938 0,0 -102.656,-80.246 0,-166.406 0,0 78.214,-73.125 363.369,-87.79 v 165.156 h -203.939 l 299.979,58.884 -0.345,-316.668 c 0,0 -486.765,22.561 -595.939,192.025 0,0 -68.437,118.951 61.919,202.053 0,0 239.275,186.563 830.769,93.684" />
        </g>
        <g transform="translate(476.5244,244.5302)" id="g38">
          <path id="path40" style="fill:#f7b32c;fill-opacity:1;fill-rule:nonzero;stroke:none" d="m 0,0 c 0,0 597.303,6.267 755.813,140.938 0,0 102.656,80.246 0,166.406 0,0 -78.214,73.125 -363.369,87.79 V 229.978 h 203.939 l -299.979,-58.884 0.345,316.668 c 0,0 486.765,-22.561 595.939,-192.025 0,0 68.437,-118.951 -61.919,-202.053 C 830.769,93.684 591.494,-92.879 0,0" />
        </g>
        <g transform="translate(938.8463,554.291)" id="g42">
          <path id="path44" style="fill:none;stroke:#d7d7d7;stroke-width:19;stroke-linecap:butt;stroke-linejoin:miter;stroke-miterlimit:10;stroke-dasharray:none;stroke-opacity:1" d="m 0,0 c 0,-25.684 -79.253,-46.505 -177.018,-46.505 -97.764,0 -177.017,20.821 -177.017,46.505 0,25.684 79.253,46.505 177.017,46.505 C -79.253,46.505 0,25.684 0,0 Z" />
        </g>
      </g>
    </g>
  </g>
</svg>